<svg width="238" height="74" viewBox="0 0 238 74" fill="none" xmlns="http://www.w3.org/2000/svg">
<g clip-path="url(#clip0_2_2)">
<rect width="238" height="74" fill="white"/>
<path d="M12.784 66.768C12.528 66.768 12.4 66.4907 12.4 65.936C12.4 65.808 12.4 65.68 12.4 65.552C12.4 65.424 12.4213 65.2747 12.464 65.104C13.104 60.2827 14.5973 55.3333 16.944 50.256C19.2907 45.1787 22 40.144 25.072 35.152C24.176 33.0187 23.344 30.864 22.576 28.688C21.808 26.4693 21.168 24.4853 20.656 22.736C20.144 20.944 19.7813 19.6427 19.568 18.832C19.1413 17.0827 18.8213 15.6533 18.608 14.544C18.4373 13.392 18.352 12.4747 18.352 11.792C18.352 10.64 18.608 10.064 19.12 10.064C19.504 10.064 19.9307 10.3413 20.4 10.896C20.912 11.4507 21.3813 12.112 21.808 12.88C22.2347 13.648 22.512 14.3733 22.64 15.056C23.024 16.72 23.4507 18.448 23.92 20.24C24.3893 21.9893 24.8373 23.6533 25.264 25.232C25.6907 26.8107 26.0533 28.176 26.352 29.328C26.6933 30.48 26.928 31.2693 27.056 31.696C28.5067 29.648 30.0853 27.4293 31.792 25.04C33.5413 22.608 35.312 20.304 37.104 18.128C38.9387 15.9093 40.6667 14.096 42.288 12.688C42.928 12.176 43.568 11.92 44.208 11.92C44.6773 11.92 45.0827 12.048 45.424 12.304C45.7653 12.56 45.936 12.88 45.936 13.264C45.936 13.6907 45.7013 14.1173 45.232 14.544C43.9093 15.696 42.48 17.1467 40.944 18.896C39.4507 20.6027 37.9147 22.4587 36.336 24.464C34.8 26.4693 33.3067 28.4533 31.856 30.416C30.4053 32.336 29.104 34.064 27.952 35.6C28.2507 36.1973 28.6987 37.2213 29.296 38.672C29.8933 40.1227 30.6613 41.808 31.6 43.728C32.5387 45.648 33.648 47.632 34.928 49.68C35.7813 51.0027 36.5707 51.9627 37.296 52.56C38.064 53.1573 38.7253 53.456 39.28 53.456C40.2187 53.456 40.88 52.8373 41.264 51.6C41.6907 50.32 41.904 48.7627 41.904 46.928C41.904 45.3493 41.8187 43.6853 41.648 41.936C41.52 40.144 41.3493 38.4587 41.136 36.88C40.9653 35.2587 40.7947 33.872 40.624 32.72C40.4533 31.568 40.3253 30.8213 40.24 30.48C40.1547 29.8827 40.0907 29.392 40.048 29.008C40.0053 28.624 39.984 28.304 39.984 28.048C39.984 27.5787 40.048 27.344 40.176 27.344C40.3467 27.344 40.56 27.6427 40.816 28.24C41.1147 28.7947 41.3707 29.4133 41.584 30.096C41.7973 30.6507 42.0533 31.568 42.352 32.848C42.6507 34.128 42.9493 35.6 43.248 37.264C43.5467 38.928 43.7813 40.656 43.952 42.448C44.1653 44.24 44.272 45.968 44.272 47.632C44.272 50.6187 43.888 52.7307 43.12 53.968C42.3947 55.2053 41.456 55.824 40.304 55.824C38.9813 55.824 37.5307 55.1627 35.952 53.84C34.416 52.5173 33.072 50.9813 31.92 49.232C30.768 47.4827 29.7227 45.6693 28.784 43.792C27.8453 41.9147 26.9067 39.8453 25.968 37.584C24.176 40.2293 22.4267 43.088 20.72 46.16C19.056 49.232 17.6053 52.3253 16.368 55.44C15.1733 58.512 14.384 61.456 14 64.272C13.9147 65.04 13.744 65.6373 13.488 66.064C13.232 66.5333 12.9973 66.768 12.784 66.768Z" fill="black"/>
<ellipse cx="30" cy="11.5" rx="5" ry="5.5" fill="#0A0909"/>
<path d="M58.016 44.536L57.856 52.792C58.7733 52.856 59.6907 53.0053 60.608 53.24L60.544 54.36C60.2027 54.5307 59.584 54.7227 58.688 54.936C57.8133 55.128 56.9493 55.224 56.096 55.224C55.712 54.456 55.4987 53.72 55.456 53.016C53.024 54.616 51.3173 55.416 50.336 55.416C48.8213 55.416 47.6053 55.0107 46.688 54.2C45.7707 53.3893 45.312 52.2587 45.312 50.808C45.312 47.4587 47.36 45.7307 51.456 45.624C53.8453 45.56 55.0507 45.528 55.072 45.528L55.04 44.44C54.9973 42.968 54.72 41.912 54.208 41.272C53.696 40.6107 52.7787 40.28 51.456 40.28C50.9013 40.28 50.304 40.408 49.664 40.664L48.896 43.864C48.7893 43.8853 48.608 43.896 48.352 43.896L47.04 43.8C46.6987 42.8827 46.5173 41.6133 46.496 39.992C46.9013 39.7787 47.8293 39.4587 49.28 39.032C50.7307 38.584 51.6587 38.36 52.064 38.36C54.24 38.36 55.776 38.84 56.672 39.8C57.568 40.76 58.016 42.3387 58.016 44.536ZM51.04 53.24C51.6587 53.24 53.088 52.5467 55.328 51.16L55.168 47.16C53.7173 47.288 52.5013 47.4053 51.52 47.512C50.5387 47.6187 49.7493 47.9067 49.152 48.376C48.5547 48.824 48.256 49.5387 48.256 50.52C48.256 52.3333 49.184 53.24 51.04 53.24ZM77.986 40.888L71.746 55H69.474L63.618 40.92L60.93 40.664C60.93 40.0667 61.1113 39.4267 61.474 38.744H69.218L69.314 39.864C68.6313 40.1627 67.874 40.3973 67.042 40.568L69.922 49.304L70.658 52.12H71.042L71.842 49.272L74.818 40.568L72.13 39.864L72.226 38.744H80.066C80.4287 39.4267 80.61 40.0667 80.61 40.664C79.7353 40.7707 78.8607 40.8453 77.986 40.888ZM87.037 35.704C86.4823 35.832 85.9383 35.896 85.405 35.896C84.893 35.896 84.381 35.864 83.869 35.8C83.741 35.2027 83.677 34.6053 83.677 34.008C83.677 33.3893 83.6983 32.9307 83.741 32.632C84.2103 32.5253 84.701 32.472 85.213 32.472C85.7463 32.472 86.3117 32.4933 86.909 32.536C87.037 33.0907 87.101 33.6347 87.101 34.168C87.101 34.68 87.0797 35.192 87.037 35.704ZM81.213 39.064C83.0263 38.744 84.4343 38.584 85.437 38.584C86.4397 38.584 87.0797 38.6053 87.357 38.648C87.357 39.16 87.293 39.7253 87.165 40.344C87.037 40.9627 86.9623 41.2613 86.941 41.24L86.653 52.824L89.341 53.08C89.341 53.6773 89.1597 54.3173 88.797 55H81.437L81.341 53.88C82.3223 53.5387 83.2823 53.2827 84.221 53.112C84.093 47.7787 83.9863 43.7787 83.901 41.112C82.6637 41.112 81.725 40.984 81.085 40.728L81.213 39.064ZM99.2488 53.208C100.187 53.208 101.659 52.76 103.665 51.864C104.07 52.4187 104.283 52.9093 104.305 53.336C103.217 53.976 102.15 54.4773 101.105 54.84C100.059 55.2027 99.3128 55.384 98.8648 55.384C96.3901 55.384 94.5021 54.648 93.2008 53.176C91.8994 51.6827 91.2488 49.6027 91.2488 46.936C91.2488 44.2693 91.8781 42.1787 93.1368 40.664C94.4168 39.128 96.3261 38.36 98.8648 38.36C100.827 38.36 102.321 39.064 103.345 40.472C104.39 41.88 104.913 43.768 104.913 46.136C104.742 46.4347 104.603 46.6373 104.497 46.744L94.1927 46.584C94.2141 48.7387 94.5874 50.3813 95.3128 51.512C96.0594 52.6427 97.3714 53.208 99.2488 53.208ZM102.001 44.76C102.001 43.352 101.745 42.264 101.233 41.496C100.721 40.7067 99.8674 40.312 98.6728 40.312C97.4781 40.312 96.4114 40.536 95.4728 40.984C94.8328 42.264 94.4274 43.576 94.2568 44.92C95.9421 44.8987 98.5234 44.8453 102.001 44.76ZM117.32 41.048C117.213 40.9413 116.978 40.888 116.616 40.888C116.253 40.888 115.709 41.016 114.984 41.272C114.28 41.528 113.64 41.8267 113.064 42.168C112.936 46.904 112.85 50.456 112.808 52.824L115.496 53.08C115.496 53.6773 115.314 54.3173 114.952 55H107.592L107.496 53.88C108.477 53.5387 109.437 53.2827 110.376 53.112C110.248 47.6933 110.141 43.6827 110.056 41.08C108.882 41.016 107.944 40.888 107.24 40.696L107.368 39.032C108.498 38.712 110.173 38.552 112.392 38.552C112.733 39.0853 112.946 39.768 113.032 40.6C115.485 39.1067 116.946 38.36 117.416 38.36C117.885 38.36 118.429 38.456 119.048 38.648C119.666 38.8187 120.125 39.0107 120.424 39.224C120.424 41.3573 120.221 43.096 119.816 44.44C119.517 44.5253 119.165 44.568 118.76 44.568C118.376 44.568 118.109 44.5573 117.96 44.536L117.32 41.048Z" fill="#0A0606"/>
<path d="M133.984 55.2598C130.411 55.2598 128.625 53.6283 128.625 50.3652L128.611 41.3965L127.039 41.4648C126.547 41.4648 126.301 41.278 126.301 40.9043C126.301 40.5306 126.565 40.3438 127.094 40.3438L128.406 40.3984H128.611V38.2793L134.477 35.6543V40.3984H136.309L137.607 40.3438C138.145 40.3438 138.414 40.5352 138.414 40.918C138.414 41.0911 138.337 41.2279 138.182 41.3281C138.036 41.4193 137.867 41.4648 137.676 41.4648L135.98 41.3965H134.477V54.248C135.543 54.2298 136.432 53.9245 137.143 53.332C137.48 53.0768 137.717 52.7487 137.854 52.3477C137.999 51.9466 138.127 51.6914 138.236 51.582C138.355 51.4635 138.492 51.4043 138.646 51.4043C138.801 51.4043 138.934 51.4681 139.043 51.5957C139.152 51.7142 139.207 51.86 139.207 52.0332C139.207 52.1973 139.161 52.3841 139.07 52.5938C138.979 52.7943 138.842 53.0085 138.66 53.2363C138.25 53.7467 137.776 54.1523 137.238 54.4531C136.263 54.9909 135.178 55.2598 133.984 55.2598ZM141.545 40.3984H147.424V44.6914C148.053 43.1328 148.727 41.9889 149.447 41.2598C150.176 40.5215 150.906 40.1523 151.635 40.1523C152.045 40.1523 152.368 40.2617 152.605 40.4805C152.852 40.6901 152.975 40.9271 152.975 41.1914C152.975 41.4557 152.938 41.6654 152.865 41.8203C152.792 41.9753 152.697 42.1074 152.578 42.2168C152.332 42.4447 152.1 42.5586 151.881 42.5586C151.535 42.5586 151.279 42.5221 151.115 42.4492C150.833 42.3216 150.582 42.2578 150.363 42.2578C150.145 42.2578 149.867 42.4355 149.529 42.791C149.192 43.1374 148.868 43.6204 148.559 44.2402C147.802 45.7533 147.424 47.3939 147.424 49.1621V55H141.545V40.3984ZM163.898 54.0977C162.732 54.8724 161.438 55.2598 160.016 55.2598C158.129 55.2598 156.616 54.7858 155.477 53.8379C154.292 52.8626 153.699 51.5091 153.699 49.7773C153.699 48.2461 154.287 46.9883 155.463 46.0039C156.666 45.0104 158.247 44.5137 160.207 44.5137C161.52 44.5137 162.75 44.7643 163.898 45.2656V41.5059C163.069 41.2689 162.335 41.1504 161.697 41.1504C161.068 41.1504 160.535 41.1777 160.098 41.2324C159.66 41.2871 159.245 41.3691 158.854 41.4785C158.006 41.7155 157.363 42.0345 156.926 42.4355C156.671 42.6725 156.438 42.791 156.229 42.791C156.019 42.791 155.859 42.7409 155.75 42.6406C155.641 42.5312 155.586 42.4128 155.586 42.2852C155.586 42.1576 155.609 42.0436 155.654 41.9434C155.7 41.834 155.786 41.7246 155.914 41.6152C156.188 41.3783 156.643 41.1413 157.281 40.9043C158.603 40.403 159.929 40.1523 161.26 40.1523C165.307 40.1523 167.891 41.1185 169.012 43.0508C169.504 43.9076 169.75 45.0332 169.75 46.4277V55H163.898V54.0977ZM163.898 46.332C162.75 45.776 161.606 45.498 160.467 45.498C160.285 45.498 160.111 45.5117 159.947 45.5391V54.2344C159.993 54.2435 160.043 54.248 160.098 54.248C160.152 54.248 160.207 54.248 160.262 54.248C161.51 54.248 162.723 53.806 163.898 52.9219V46.332ZM171.719 40.3984H177.912L181.631 48.0684L183.969 43.4199C184.452 42.4264 184.753 41.6882 184.871 41.2051C184.999 40.722 185.122 40.4258 185.24 40.3164C185.368 40.207 185.518 40.1523 185.691 40.1523C185.874 40.1523 186.015 40.2116 186.115 40.3301C186.215 40.4486 186.266 40.5671 186.266 40.6855C186.266 40.804 186.252 40.9225 186.225 41.041C186.206 41.1595 186.165 41.319 186.102 41.5195C185.965 41.8932 185.678 42.5404 185.24 43.4609L179.225 55.6152L171.719 40.3984ZM201.346 51.6777C201.701 51.6777 201.879 51.8418 201.879 52.1699C201.879 52.416 201.719 52.7077 201.4 53.0449C199.96 54.5215 197.987 55.2598 195.48 55.2598C193.229 55.2598 191.333 54.5807 189.793 53.2227C188.198 51.8099 187.4 50.0234 187.4 47.8633C187.4 45.6576 188.12 43.8438 189.561 42.4219C191.083 40.9089 193.106 40.1523 195.631 40.1523C197.654 40.1523 199.354 40.7676 200.73 41.998C202.216 43.3197 202.959 45.056 202.959 47.207C202.959 47.5169 202.95 47.8451 202.932 48.1914H193.908V54.0566C194.528 54.1842 195.225 54.248 196 54.248C197.641 54.248 199.04 53.7057 200.197 52.6211C200.434 52.3841 200.603 52.1973 200.703 52.0605C200.913 51.8053 201.127 51.6777 201.346 51.6777ZM197.695 41.4102C197.103 41.237 196.433 41.1504 195.686 41.1504C194.938 41.1504 194.346 41.2005 193.908 41.3008V47.1934H197.695V41.4102ZM206.432 35.6543H212.311V55H206.432V35.6543ZM215.729 53.168C215.729 53.0312 215.774 52.9082 215.865 52.7988C215.965 52.6803 216.093 52.6211 216.248 52.6211C216.403 52.6211 216.531 52.6667 216.631 52.7578C216.631 52.7578 216.745 52.8626 216.973 53.0723C217.921 53.9017 219.247 54.3164 220.951 54.3164C222.1 54.3164 222.838 54.0794 223.166 53.6055C223.257 53.4779 223.303 53.3503 223.303 53.2227C223.303 53.0859 223.275 52.9583 223.221 52.8398C223.175 52.7122 223.07 52.5618 222.906 52.3887C222.742 52.2064 222.51 51.9922 222.209 51.7461L221.006 50.7754C219.019 49.2259 217.656 47.9681 216.918 47.002C216.243 46.1178 215.906 45.2155 215.906 44.2949C215.906 43.1374 216.439 42.1667 217.506 41.3828C218.609 40.5625 220.035 40.1523 221.785 40.1523C223.016 40.1523 223.986 40.2936 224.697 40.5762C225.408 40.8587 225.91 41.1185 226.201 41.3555C226.493 41.5833 226.639 41.793 226.639 41.9844C226.639 42.3763 226.484 42.5723 226.174 42.5723C226.028 42.5723 225.891 42.5221 225.764 42.4219C225.645 42.3125 225.404 42.1348 225.039 41.8887C224.674 41.6335 224.191 41.4329 223.59 41.2871C222.988 41.1413 222.428 41.0684 221.908 41.0684C221.389 41.0684 221.02 41.1504 220.801 41.3145C220.591 41.4785 220.486 41.6426 220.486 41.8066C220.486 41.9616 220.518 42.112 220.582 42.2578C220.646 42.3945 220.764 42.5586 220.938 42.75C221.339 43.224 221.981 43.7845 222.865 44.4316C223.749 45.0788 224.497 45.6712 225.107 46.209C225.718 46.7467 226.197 47.2435 226.543 47.6992C227.172 48.5195 227.486 49.349 227.486 50.1875C227.486 51.026 227.331 51.7461 227.021 52.3477C226.712 52.9401 226.27 53.4505 225.695 53.8789C224.483 54.7995 222.865 55.2598 220.842 55.2598C219.219 55.2598 217.866 54.9499 216.781 54.3301C216.079 53.9382 215.729 53.5508 215.729 53.168Z" fill="#188FFD"/>
</g>
<defs>
<clipPath id="clip0_2_2">
<rect width="238" height="74" fill="white"/>
</clipPath>
</defs>
</svg>
