<svg width="200" height="70" viewBox="0 0 200 70" fill="none" xmlns="http://www.w3.org/2000/svg">
<rect width="200" height="70" fill="white"/>
<path d="M32.392 47.384C32.264 47.384 32.2 47.2453 32.2 46.968C32.2 46.904 32.2 46.84 32.2 46.776C32.2 46.712 32.2107 46.6373 32.232 46.552C32.552 44.1413 33.2987 41.6667 34.472 39.128C35.6453 36.5893 37 34.072 38.536 31.576C38.088 30.5093 37.672 29.432 37.288 28.344C36.904 27.2347 36.584 26.2427 36.328 25.368C36.072 24.472 35.8907 23.8213 35.784 23.416C35.5707 22.5413 35.4107 21.8267 35.304 21.272C35.2187 20.696 35.176 20.2373 35.176 19.896C35.176 19.32 35.304 19.032 35.56 19.032C35.752 19.032 35.9653 19.1707 36.2 19.448C36.456 19.7253 36.6907 20.056 36.904 20.44C37.1173 20.824 37.256 21.1867 37.32 21.528C37.512 22.36 37.7253 23.224 37.96 24.12C38.1947 24.9947 38.4187 25.8267 38.632 26.616C38.8453 27.4053 39.0267 28.088 39.176 28.664C39.3467 29.24 39.464 29.6347 39.528 29.848C40.2533 28.824 41.0427 27.7147 41.896 26.52C42.7707 25.304 43.656 24.152 44.552 23.064C45.4693 21.9547 46.3333 21.048 47.144 20.344C47.464 20.088 47.784 19.96 48.104 19.96C48.3387 19.96 48.5413 20.024 48.712 20.152C48.8827 20.28 48.968 20.44 48.968 20.632C48.968 20.8453 48.8507 21.0587 48.616 21.272C47.9547 21.848 47.24 22.5733 46.472 23.448C45.7253 24.3013 44.9573 25.2293 44.168 26.232C43.4 27.2347 42.6533 28.2267 41.928 29.208C41.2027 30.168 40.552 31.032 39.976 31.8C40.1253 32.0987 40.3493 32.6107 40.648 33.336C40.9467 34.0613 41.3307 34.904 41.8 35.864C42.2693 36.824 42.824 37.816 43.464 38.84C43.8907 39.5013 44.2853 39.9813 44.648 40.28C45.032 40.5787 45.3627 40.728 45.64 40.728C46.1093 40.728 46.44 40.4187 46.632 39.8C46.8453 39.16 46.952 38.3813 46.952 37.464C46.952 36.6747 46.9093 35.8427 46.824 34.968C46.76 34.072 46.6747 33.2293 46.568 32.44C46.4827 31.6293 46.3973 30.936 46.312 30.36C46.2267 29.784 46.1627 29.4107 46.12 29.24C46.0773 28.9413 46.0453 28.696 46.024 28.504C46.0027 28.312 45.992 28.152 45.992 28.024C45.992 27.7893 46.024 27.672 46.088 27.672C46.1733 27.672 46.28 27.8213 46.408 28.12C46.5573 28.3973 46.6853 28.7067 46.792 29.048C46.8987 29.3253 47.0267 29.784 47.176 30.424C47.3253 31.064 47.4747 31.8 47.624 32.632C47.7733 33.464 47.8907 34.328 47.976 35.224C48.0827 36.12 48.136 36.984 48.136 37.816C48.136 39.3093 47.944 40.3653 47.56 40.984C47.1973 41.6027 46.728 41.912 46.152 41.912C45.4907 41.912 44.7653 41.5813 43.976 40.92C43.208 40.2587 42.536 39.4907 41.96 38.616C41.384 37.7413 40.8613 36.8347 40.392 35.896C39.9227 34.9573 39.4533 33.9227 38.984 32.792C38.088 34.1147 37.2133 35.544 36.36 37.08C35.528 38.616 34.8027 40.1627 34.184 41.72C33.5867 43.256 33.192 44.728 33 46.136C32.9573 46.52 32.872 46.8187 32.744 47.032C32.616 47.2667 32.4987 47.384 32.392 47.384Z" fill="black"/>
<ellipse cx="42" cy="15.5" rx="5" ry="5.5" fill="#0A0909"/>
<path d="M56.76 39.46L56.66 44.62C57.2333 44.66 57.8067 44.7533 58.38 44.9L58.34 45.6C58.1267 45.7067 57.74 45.8267 57.18 45.96C56.6333 46.08 56.0933 46.14 55.56 46.14C55.32 45.66 55.1867 45.2 55.16 44.76C53.64 45.76 52.5733 46.26 51.96 46.26C51.0133 46.26 50.2533 46.0067 49.68 45.5C49.1067 44.9933 48.82 44.2867 48.82 43.38C48.82 41.2867 50.1 40.2067 52.66 40.14C54.1533 40.1 54.9067 40.08 54.92 40.08L54.9 39.4C54.8733 38.48 54.7 37.82 54.38 37.42C54.06 37.0067 53.4867 36.8 52.66 36.8C52.3133 36.8 51.94 36.88 51.54 37.04L51.06 39.04C50.9933 39.0533 50.88 39.06 50.72 39.06L49.9 39C49.6867 38.4267 49.5733 37.6333 49.56 36.62C49.8133 36.4867 50.3933 36.2867 51.3 36.02C52.2067 35.74 52.7867 35.6 53.04 35.6C54.4 35.6 55.36 35.9 55.92 36.5C56.48 37.1 56.76 38.0867 56.76 39.46ZM52.4 44.9C52.7867 44.9 53.68 44.4667 55.08 43.6L54.98 41.1C54.0733 41.18 53.3133 41.2533 52.7 41.32C52.0867 41.3867 51.5933 41.5667 51.22 41.86C50.8467 42.14 50.66 42.5867 50.66 43.2C50.66 44.3333 51.24 44.9 52.4 44.9ZM69.2413 37.18L65.3413 46H63.9212L60.2613 37.2L58.5812 37.04C58.5812 36.6667 58.6946 36.2667 58.9213 35.84H63.7613L63.8213 36.54C63.3946 36.7267 62.9213 36.8733 62.4013 36.98L64.2013 42.44L64.6612 44.2H64.9013L65.4013 42.42L67.2613 36.98L65.5813 36.54L65.6413 35.84H70.5412C70.7679 36.2667 70.8813 36.6667 70.8813 37.04C70.3346 37.1067 69.7879 37.1533 69.2413 37.18ZM74.8981 33.94C74.5515 34.02 74.2115 34.06 73.8781 34.06C73.5581 34.06 73.2381 34.04 72.9181 34C72.8381 33.6267 72.7981 33.2533 72.7981 32.88C72.7981 32.4933 72.8115 32.2067 72.8381 32.02C73.1315 31.9533 73.4381 31.92 73.7581 31.92C74.0915 31.92 74.4448 31.9333 74.8181 31.96C74.8981 32.3067 74.9381 32.6467 74.9381 32.98C74.9381 33.3 74.9248 33.62 74.8981 33.94ZM71.2581 36.04C72.3915 35.84 73.2715 35.74 73.8981 35.74C74.5248 35.74 74.9248 35.7533 75.0981 35.78C75.0981 36.1 75.0581 36.4533 74.9781 36.84C74.8981 37.2267 74.8515 37.4133 74.8381 37.4L74.6581 44.64L76.3381 44.8C76.3381 45.1733 76.2248 45.5733 75.9981 46H71.3981L71.3381 45.3C71.9515 45.0867 72.5515 44.9267 73.1381 44.82C73.0581 41.4867 72.9915 38.9867 72.9381 37.32C72.1648 37.32 71.5781 37.24 71.1781 37.08L71.2581 36.04ZM82.5305 44.88C83.1171 44.88 84.0371 44.6 85.2905 44.04C85.5438 44.3867 85.6771 44.6933 85.6905 44.96C85.0105 45.36 84.3438 45.6733 83.6905 45.9C83.0371 46.1267 82.5705 46.24 82.2905 46.24C80.7438 46.24 79.5638 45.78 78.7505 44.86C77.9371 43.9267 77.5305 42.6267 77.5305 40.96C77.5305 39.2933 77.9238 37.9867 78.7105 37.04C79.5105 36.08 80.7038 35.6 82.2905 35.6C83.5171 35.6 84.4505 36.04 85.0905 36.92C85.7438 37.8 86.0705 38.98 86.0705 40.46C85.9638 40.6467 85.8771 40.7733 85.8105 40.84L79.3705 40.74C79.3838 42.0867 79.6171 43.1133 80.0705 43.82C80.5371 44.5267 81.3571 44.88 82.5305 44.88ZM84.2505 39.6C84.2505 38.72 84.0905 38.04 83.7705 37.56C83.4505 37.0667 82.9171 36.82 82.1705 36.82C81.4238 36.82 80.7571 36.96 80.1705 37.24C79.7705 38.04 79.5171 38.86 79.4105 39.7C80.4638 39.6867 82.0771 39.6533 84.2505 39.6ZM93.8248 37.28C93.7582 37.2133 93.6115 37.18 93.3848 37.18C93.1582 37.18 92.8182 37.26 92.3648 37.42C91.9248 37.58 91.5248 37.7667 91.1648 37.98C91.0848 40.94 91.0315 43.16 91.0048 44.64L92.6848 44.8C92.6848 45.1733 92.5715 45.5733 92.3448 46H87.7448L87.6848 45.3C88.2982 45.0867 88.8982 44.9267 89.4848 44.82C89.4048 41.4333 89.3382 38.9267 89.2848 37.3C88.5515 37.26 87.9648 37.18 87.5248 37.06L87.6048 36.02C88.3115 35.82 89.3582 35.72 90.7448 35.72C90.9582 36.0533 91.0915 36.48 91.1448 37C92.6782 36.0667 93.5915 35.6 93.8848 35.6C94.1782 35.6 94.5182 35.66 94.9048 35.78C95.2915 35.8867 95.5782 36.0067 95.7648 36.14C95.7648 37.4733 95.6382 38.56 95.3848 39.4C95.1982 39.4533 94.9782 39.48 94.7248 39.48C94.4848 39.48 94.3182 39.4733 94.2248 39.46L93.8248 37.28Z" fill="#0A0606"/>
<path d="M109.281 34.6406H106.031V40.8594C106.031 41.7552 106.042 42.599 106.062 43.3906C106.083 44.1719 106.203 44.7083 106.422 45C106.651 45.2812 106.979 45.4219 107.406 45.4219C108.167 45.4219 108.979 45.2135 109.844 44.7969V45.6406C108.74 46.224 107.797 46.5156 107.016 46.5156C106.276 46.5156 105.703 46.3906 105.297 46.1406C104.901 45.901 104.609 45.5885 104.422 45.2031C104.245 44.8073 104.141 44.3646 104.109 43.875C104.078 43.3854 104.062 42.8958 104.062 42.4062V35.7031C104.062 35.474 104.057 35.2969 104.047 35.1719C104.047 35.0469 104.026 34.9375 103.984 34.8438C103.953 34.75 103.87 34.6927 103.734 34.6719C103.599 34.651 103.396 34.6406 103.125 34.6406H102.25V33.9062C103.25 33.4792 103.938 33.0677 104.312 32.6719C104.688 32.276 105.089 31.5885 105.516 30.6094H106.031V33.4688H109.281V34.6406ZM119.344 35.4844L117.641 35.2812C116.786 35.2917 116.089 35.724 115.547 36.5781C115.359 36.8906 115.266 37.3646 115.266 38V43.5625C115.266 44.3333 115.604 44.849 116.281 45.1094C116.292 45.1198 116.479 45.1771 116.844 45.2812C117.208 45.375 117.406 45.4271 117.438 45.4375V46H111.516V45.4375C111.547 45.4167 111.651 45.3854 111.828 45.3438C112.578 45.1667 113.057 44.8906 113.266 44.5156C113.37 44.3073 113.427 44.0781 113.438 43.8281V36.1406C113.438 35.6406 113.172 35.3385 112.641 35.2344C112.484 35.2031 112.146 35.1771 111.625 35.1562L111.547 34.6094L115.391 33.1406L115.422 35.6094L115.969 35.0312C117.146 33.9375 118.297 33.3906 119.422 33.3906C120.089 33.3906 120.427 33.7135 120.438 34.3594C120.438 34.8802 120.224 35.2292 119.797 35.4062C119.651 35.4583 119.5 35.4844 119.344 35.4844ZM132.672 44.6719C132.651 44.724 132.573 44.849 132.438 45.0469C132.312 45.2448 132.146 45.4531 131.938 45.6719C131.74 45.8906 131.51 46.0833 131.25 46.25C130.99 46.4271 130.719 46.5156 130.438 46.5156C130.031 46.5156 129.703 46.4219 129.453 46.2344C129.203 46.0469 129.005 45.8125 128.859 45.5312C128.714 45.25 128.609 44.9531 128.547 44.6406C128.484 44.3177 128.443 44.0312 128.422 43.7812C128.349 43.8438 128.214 44.0208 128.016 44.3125C127.818 44.6042 127.552 44.9167 127.219 45.25C126.885 45.5729 126.474 45.8646 125.984 46.125C125.505 46.3854 124.948 46.5156 124.312 46.5156C124 46.5156 123.672 46.474 123.328 46.3906C122.995 46.3073 122.693 46.1667 122.422 45.9688C122.151 45.7604 121.927 45.4844 121.75 45.1406C121.573 44.7865 121.484 44.349 121.484 43.8281C121.484 43.0885 121.729 42.474 122.219 41.9844C122.708 41.4948 123.318 41.1094 124.047 40.8281C124.776 40.5469 125.443 40.3438 126.047 40.2188C126.661 40.0833 127.391 39.9323 128.234 39.7656V37.1562C128.234 36.9271 128.224 36.6406 128.203 36.2969C128.193 35.9427 128.13 35.6042 128.016 35.2812C127.911 34.9479 127.734 34.6667 127.484 34.4375C127.245 34.1979 126.896 34.0781 126.438 34.0781C125.875 34.0781 125.411 34.1875 125.047 34.4062C124.693 34.625 124.432 34.8229 124.266 35C124.099 35.1771 123.87 35.4375 123.578 35.7812C123.224 35.8229 122.943 35.8177 122.734 35.7656C122.536 35.7031 122.37 35.6146 122.234 35.5C122.109 35.375 122.047 35.2083 122.047 35C122.047 34.6979 122.276 34.4115 122.734 34.1406C123.193 33.8698 123.786 33.6302 124.516 33.4219C125.255 33.2031 125.953 33.0938 126.609 33.0938C127.203 33.0938 127.703 33.1823 128.109 33.3594C128.516 33.526 128.849 33.7604 129.109 34.0625C129.37 34.3542 129.568 34.6979 129.703 35.0938C129.839 35.4792 129.932 35.8906 129.984 36.3281C130.047 36.7656 130.078 37.2135 130.078 37.6719C130.089 38.1302 130.094 38.5729 130.094 39C130.094 39.7917 130.083 40.5625 130.062 41.3125C130.042 42.0625 130.047 42.7344 130.078 43.3281C130.109 43.9115 130.188 44.3854 130.312 44.75C130.448 45.1042 130.667 45.2812 130.969 45.2812C131.354 45.2812 131.745 44.9271 132.141 44.2188L132.672 44.6719ZM128.234 40.7969C127.391 40.9219 126.667 41.0625 126.062 41.2188C125.469 41.375 124.995 41.5729 124.641 41.8125C124.297 42.0521 124.031 42.3229 123.844 42.625C123.667 42.9167 123.578 43.276 123.578 43.7031C123.578 44.7448 124.036 45.2656 124.953 45.2656C125.286 45.2656 125.63 45.1458 125.984 44.9062C126.339 44.6667 126.667 44.3802 126.969 44.0469C127.271 43.7031 127.536 43.349 127.766 42.9844C127.995 42.6198 128.151 42.3177 128.234 42.0781V40.7969ZM132.594 34.1562V33.4375H137.906V34.1562C137.021 34.1562 136.547 34.3802 136.484 34.8281C136.453 35.0885 136.552 35.5417 136.781 36.1875L139.469 43.5625L142.438 35.2969C142.635 34.7656 142.432 34.4167 141.828 34.25C141.609 34.1875 141.365 34.1562 141.094 34.1562V33.4375H145.422V34.1562C144.724 34.1771 144.24 34.3958 143.969 34.8125C143.854 34.9896 143.667 35.4167 143.406 36.0938L139.562 46.1719H138.578L134.875 36.5469C134.5 35.5677 134.146 34.9271 133.812 34.625C133.49 34.3125 133.083 34.1562 132.594 34.1562ZM151.75 33.0938C153.75 33.0938 155.005 33.875 155.516 35.4375C155.745 36.1458 155.807 36.8385 155.703 37.5156H148.219C148.083 38.2656 148.016 38.9635 148.016 39.6094C148.016 41.8073 148.672 43.3073 149.984 44.1094C150.682 44.5365 151.521 44.75 152.5 44.75C153.521 44.75 154.547 44.375 155.578 43.625L156.031 44.0938L155.594 44.6094C154.406 45.849 153 46.474 151.375 46.4844C150.406 46.4844 149.51 46.1927 148.688 45.6094C147.031 44.4323 146.203 42.651 146.203 40.2656C146.203 37.7448 146.906 35.8333 148.312 34.5312C149.375 33.6042 150.521 33.125 151.75 33.0938ZM148.375 36.5H153.688C153.688 35.6771 153.5 35.0677 153.125 34.6719C152.75 34.2656 152.271 34.0625 151.688 34.0625C150.781 34.0625 150.042 34.3333 149.469 34.875C148.896 35.4062 148.531 35.9479 148.375 36.5ZM161.781 24.4531V42.4531C161.781 43.3906 161.812 43.9688 161.875 44.1875C161.99 44.6042 162.297 44.9167 162.797 45.125C163.068 45.2292 163.417 45.3281 163.844 45.4219V46H157.953V45.4219C158.016 45.401 158.24 45.3542 158.625 45.2812C159.49 45.1042 159.922 44.4792 159.922 43.4062V27.6406C159.922 27.0052 159.88 26.6094 159.797 26.4531C159.62 26.1198 159.057 25.9531 158.109 25.9531L158.031 25.4531L161.781 24.4531ZM173.047 34.0312L172.969 36.4531H172.156C172.094 35.3802 171.771 34.6667 171.188 34.3125C170.833 34.1042 170.391 34 169.859 34C169.286 34 168.849 34.1823 168.547 34.5469C168.255 34.901 168.109 35.3594 168.109 35.9219C168.12 36.5781 168.5 37.2188 169.25 37.8438L171.312 39.6406C172.167 40.401 172.719 41.0365 172.969 41.5469C173.229 42.0469 173.359 42.5469 173.359 43.0469C173.359 44.2552 172.859 45.1823 171.859 45.8281C171.141 46.2865 170.234 46.5104 169.141 46.5C168.057 46.5 166.984 46.224 165.922 45.6719L165.734 43.2031H166.5C166.708 44.099 166.984 44.724 167.328 45.0781C167.672 45.4219 168.255 45.5938 169.078 45.5938C169.88 45.5938 170.5 45.3646 170.938 44.9062C171.375 44.4479 171.589 43.9688 171.578 43.4688C171.578 42.7708 171.109 42.0104 170.172 41.1875L168.109 39.4219C166.859 38.3594 166.229 37.3438 166.219 36.375C166.219 35.2292 166.604 34.4062 167.375 33.9062C168.156 33.3958 169.052 33.1406 170.062 33.1406C171.115 33.1406 172.109 33.4375 173.047 34.0312Z" fill="#188FFD"/>
</svg>
