<svg width="186" height="34" viewBox="0 0 186 34" fill="none" xmlns="http://www.w3.org/2000/svg">
<g clip-path="url(#clip0_2_2)">
<rect width="186" height="34" fill="white"/>
<path d="M5.392 32.384C5.264 32.384 5.2 32.2453 5.2 31.968C5.2 31.904 5.2 31.84 5.2 31.776C5.2 31.712 5.21067 31.6373 5.232 31.552C5.552 29.1413 6.29867 26.6667 7.472 24.128C8.64533 21.5893 10 19.072 11.536 16.576C11.088 15.5093 10.672 14.432 10.288 13.344C9.904 12.2347 9.584 11.2427 9.328 10.368C9.072 9.472 8.89067 8.82133 8.784 8.416C8.57067 7.54133 8.41067 6.82667 8.304 6.272C8.21867 5.696 8.176 5.23733 8.176 4.896C8.176 4.32 8.304 4.032 8.56 4.032C8.752 4.032 8.96533 4.17067 9.2 4.448C9.456 4.72533 9.69067 5.056 9.904 5.44C10.1173 5.824 10.256 6.18667 10.32 6.528C10.512 7.36 10.7253 8.224 10.96 9.12C11.1947 9.99467 11.4187 10.8267 11.632 11.616C11.8453 12.4053 12.0267 13.088 12.176 13.664C12.3467 14.24 12.464 14.6347 12.528 14.848C13.2533 13.824 14.0427 12.7147 14.896 11.52C15.7707 10.304 16.656 9.152 17.552 8.064C18.4693 6.95467 19.3333 6.048 20.144 5.344C20.464 5.088 20.784 4.96 21.104 4.96C21.3387 4.96 21.5413 5.024 21.712 5.152C21.8827 5.28 21.968 5.44 21.968 5.632C21.968 5.84533 21.8507 6.05867 21.616 6.272C20.9547 6.848 20.24 7.57333 19.472 8.448C18.7253 9.30133 17.9573 10.2293 17.168 11.232C16.4 12.2347 15.6533 13.2267 14.928 14.208C14.2027 15.168 13.552 16.032 12.976 16.8C13.1253 17.0987 13.3493 17.6107 13.648 18.336C13.9467 19.0613 14.3307 19.904 14.8 20.864C15.2693 21.824 15.824 22.816 16.464 23.84C16.8907 24.5013 17.2853 24.9813 17.648 25.28C18.032 25.5787 18.3627 25.728 18.64 25.728C19.1093 25.728 19.44 25.4187 19.632 24.8C19.8453 24.16 19.952 23.3813 19.952 22.464C19.952 21.6747 19.9093 20.8427 19.824 19.968C19.76 19.072 19.6747 18.2293 19.568 17.44C19.4827 16.6293 19.3973 15.936 19.312 15.36C19.2267 14.784 19.1627 14.4107 19.12 14.24C19.0773 13.9413 19.0453 13.696 19.024 13.504C19.0027 13.312 18.992 13.152 18.992 13.024C18.992 12.7893 19.024 12.672 19.088 12.672C19.1733 12.672 19.28 12.8213 19.408 13.12C19.5573 13.3973 19.6853 13.7067 19.792 14.048C19.8987 14.3253 20.0267 14.784 20.176 15.424C20.3253 16.064 20.4747 16.8 20.624 17.632C20.7733 18.464 20.8907 19.328 20.976 20.224C21.0827 21.12 21.136 21.984 21.136 22.816C21.136 24.3093 20.944 25.3653 20.56 25.984C20.1973 26.6027 19.728 26.912 19.152 26.912C18.4907 26.912 17.7653 26.5813 16.976 25.92C16.208 25.2587 15.536 24.4907 14.96 23.616C14.384 22.7413 13.8613 21.8347 13.392 20.896C12.9227 19.9573 12.4533 18.9227 11.984 17.792C11.088 19.1147 10.2133 20.544 9.36 22.08C8.528 23.616 7.80267 25.1627 7.184 26.72C6.58667 28.256 6.192 29.728 6 31.136C5.95733 31.52 5.872 31.8187 5.744 32.032C5.616 32.2667 5.49867 32.384 5.392 32.384Z" fill="black"/>
<ellipse cx="15" cy="5.5" rx="2" ry="2.5" fill="#0A0909"/>
<path d="M33.728 27.168C32.48 27.168 31.744 26.592 31.52 25.44C30.96 26.08 30.344 26.544 29.672 26.832C29 27.104 28.336 27.24 27.68 27.24C26.56 27.24 25.736 26.928 25.208 26.304C24.68 25.68 24.416 24.928 24.416 24.048C24.416 23.104 24.736 22.36 25.376 21.816C26.032 21.256 27.16 20.976 28.76 20.976H31.472V19.032C31.472 17.752 31.248 16.872 30.8 16.392C30.368 15.896 29.776 15.648 29.024 15.648C28.544 15.648 28.112 15.744 27.728 15.936C27.344 16.128 27.064 16.48 26.888 16.992C26.728 17.488 26.712 18.216 26.84 19.176L24.944 18.888C24.864 18.136 24.96 17.464 25.232 16.872C25.52 16.264 25.984 15.784 26.624 15.432C27.28 15.064 28.096 14.88 29.072 14.88C30.24 14.88 31.136 15.08 31.76 15.48C32.384 15.864 32.816 16.368 33.056 16.992C33.312 17.616 33.44 18.296 33.44 19.032V24.432C33.44 25.248 33.528 25.76 33.704 25.968C33.896 26.176 34.104 26.28 34.328 26.28C34.472 26.28 34.624 26.248 34.784 26.184C34.944 26.104 35.12 25.984 35.312 25.824L35.744 26.424C35.504 26.632 35.216 26.808 34.88 26.952C34.56 27.096 34.176 27.168 33.728 27.168ZM28.352 26.232C28.8 26.232 29.28 26.112 29.792 25.872C30.32 25.616 30.88 25.112 31.472 24.36V21.744H29.024C28.128 21.744 27.472 21.928 27.056 22.296C26.656 22.648 26.456 23.2 26.456 23.952C26.456 24.672 26.608 25.232 26.912 25.632C27.232 26.032 27.712 26.232 28.352 26.232ZM45.9601 16.92L42.4561 27H40.8961L37.3681 16.92C37.2081 16.456 37.0881 16.176 37.0081 16.08C36.9281 15.984 36.7601 15.92 36.5041 15.888L35.2801 15.768V15.12H40.7521V15.768L39.5281 15.888C39.2721 15.92 39.1361 15.984 39.1201 16.08C39.1041 16.16 39.1761 16.44 39.3361 16.92L42.2401 25.272L45.0961 16.92C45.2561 16.44 45.3281 16.16 45.3121 16.08C45.2961 15.984 45.1601 15.92 44.9041 15.888L43.6561 15.768V15.12H48.0241V15.768L46.8001 15.888C46.5441 15.92 46.3761 15.984 46.2961 16.08C46.2321 16.16 46.1201 16.44 45.9601 16.92ZM51.6324 12.432C51.2484 12.432 50.9284 12.312 50.6724 12.072C50.4324 11.816 50.3124 11.488 50.3124 11.088C50.3124 10.704 50.4324 10.392 50.6724 10.152C50.9284 9.912 51.2484 9.792 51.6324 9.792C52.0164 9.792 52.3284 9.912 52.5684 10.152C52.8244 10.392 52.9524 10.704 52.9524 11.088C52.9524 11.488 52.8244 11.816 52.5684 12.072C52.3284 12.312 52.0164 12.432 51.6324 12.432ZM48.8244 15.768V15.12H52.6404V25.056C52.6404 25.616 52.6644 25.944 52.7124 26.04C52.7604 26.136 52.9124 26.2 53.1684 26.232L54.4884 26.376V27H48.8244V26.376L50.1444 26.232C50.4004 26.2 50.5524 26.136 50.6004 26.04C50.6484 25.944 50.6724 25.616 50.6724 25.056V17.064C50.6724 16.504 50.6484 16.176 50.6004 16.08C50.5524 15.984 50.4004 15.92 50.1444 15.888L48.8244 15.768ZM66.2203 24.264C65.9323 25.352 65.3883 26.12 64.5883 26.568C63.8043 27.016 62.9323 27.24 61.9723 27.24C60.1963 27.24 58.8683 26.704 57.9883 25.632C57.1083 24.544 56.6683 23.096 56.6683 21.288V20.808C56.6683 19.016 57.0923 17.584 57.9403 16.512C58.7883 15.424 60.0203 14.88 61.6363 14.88C62.5003 14.88 63.2843 15.056 63.9883 15.408C64.7083 15.76 65.2763 16.28 65.6923 16.968C66.1243 17.656 66.3403 18.512 66.3403 19.536C66.3403 20.016 66.2923 20.52 66.1963 21.048H58.8283V21.768C58.8283 23.448 59.0843 24.656 59.5963 25.392C60.1243 26.112 60.9723 26.472 62.1403 26.472C62.8763 26.472 63.4843 26.28 63.9643 25.896C64.4603 25.512 64.7883 24.848 64.9483 23.904L66.2203 24.264ZM61.6363 15.648C60.6923 15.648 59.9883 16.008 59.5243 16.728C59.0603 17.448 58.8283 18.632 58.8283 20.28H64.2283V20.208C64.2603 20 64.2843 19.8 64.3003 19.608C64.3163 19.4 64.3243 19.216 64.3243 19.056C64.3243 17.856 64.0763 16.992 63.5803 16.464C63.0843 15.92 62.4363 15.648 61.6363 15.648ZM68.6056 15.768V15.12H72.3016V17.04C72.8616 16.288 73.4216 15.744 73.9816 15.408C74.5576 15.056 75.1416 14.88 75.7336 14.88C76.2456 14.88 76.7256 15.032 77.1736 15.336C77.6216 15.64 77.9976 16.128 78.3016 16.8L76.7416 17.736C76.5016 17.16 76.2296 16.76 75.9256 16.536C75.6216 16.312 75.2856 16.2 74.9176 16.2C74.5176 16.2 74.1176 16.328 73.7176 16.584C73.3336 16.84 72.9016 17.32 72.4216 18.024V25.056C72.4216 25.616 72.4456 25.952 72.4936 26.064C72.5416 26.16 72.6936 26.216 72.9496 26.232L74.7496 26.376V27H68.6056V26.376L69.9256 26.232C70.1816 26.2 70.3336 26.136 70.3816 26.04C70.4296 25.944 70.4536 25.616 70.4536 25.056V17.064C70.4536 16.504 70.4296 16.176 70.3816 16.08C70.3336 15.984 70.1816 15.92 69.9256 15.888L68.6056 15.768Z" fill="#0A0606"/>
<path d="M87.9844 28.2598C84.4115 28.2598 82.625 26.6283 82.625 23.3652L82.6113 14.3965L81.0391 14.4648C80.5469 14.4648 80.3008 14.278 80.3008 13.9043C80.3008 13.5306 80.5651 13.3438 81.0938 13.3438L82.4062 13.3984H82.6113V11.2793L88.4766 8.6543V13.3984H90.3086L91.6074 13.3438C92.1452 13.3438 92.4141 13.5352 92.4141 13.918C92.4141 14.0911 92.3366 14.2279 92.1816 14.3281C92.0358 14.4193 91.8672 14.4648 91.6758 14.4648L89.9805 14.3965H88.4766V27.248C89.543 27.2298 90.4316 26.9245 91.1426 26.332C91.4798 26.0768 91.7168 25.7487 91.8535 25.3477C91.9993 24.9466 92.127 24.6914 92.2363 24.582C92.3548 24.4635 92.4915 24.4043 92.6465 24.4043C92.8014 24.4043 92.9336 24.4681 93.043 24.5957C93.1523 24.7142 93.207 24.86 93.207 25.0332C93.207 25.1973 93.1615 25.3841 93.0703 25.5938C92.9792 25.7943 92.8424 26.0085 92.6602 26.2363C92.25 26.7467 91.776 27.1523 91.2383 27.4531C90.263 27.9909 89.1784 28.2598 87.9844 28.2598ZM95.5449 13.3984H101.424V17.6914C102.053 16.1328 102.727 14.9889 103.447 14.2598C104.176 13.5215 104.906 13.1523 105.635 13.1523C106.045 13.1523 106.368 13.2617 106.605 13.4805C106.852 13.6901 106.975 13.9271 106.975 14.1914C106.975 14.4557 106.938 14.6654 106.865 14.8203C106.792 14.9753 106.697 15.1074 106.578 15.2168C106.332 15.4447 106.1 15.5586 105.881 15.5586C105.535 15.5586 105.279 15.5221 105.115 15.4492C104.833 15.3216 104.582 15.2578 104.363 15.2578C104.145 15.2578 103.867 15.4355 103.529 15.791C103.192 16.1374 102.868 16.6204 102.559 17.2402C101.802 18.7533 101.424 20.3939 101.424 22.1621V28H95.5449V13.3984ZM117.898 27.0977C116.732 27.8724 115.438 28.2598 114.016 28.2598C112.129 28.2598 110.616 27.7858 109.477 26.8379C108.292 25.8626 107.699 24.5091 107.699 22.7773C107.699 21.2461 108.287 19.9883 109.463 19.0039C110.666 18.0104 112.247 17.5137 114.207 17.5137C115.52 17.5137 116.75 17.7643 117.898 18.2656V14.5059C117.069 14.2689 116.335 14.1504 115.697 14.1504C115.068 14.1504 114.535 14.1777 114.098 14.2324C113.66 14.2871 113.245 14.3691 112.854 14.4785C112.006 14.7155 111.363 15.0345 110.926 15.4355C110.671 15.6725 110.438 15.791 110.229 15.791C110.019 15.791 109.859 15.7409 109.75 15.6406C109.641 15.5312 109.586 15.4128 109.586 15.2852C109.586 15.1576 109.609 15.0436 109.654 14.9434C109.7 14.834 109.786 14.7246 109.914 14.6152C110.188 14.3783 110.643 14.1413 111.281 13.9043C112.603 13.403 113.929 13.1523 115.26 13.1523C119.307 13.1523 121.891 14.1185 123.012 16.0508C123.504 16.9076 123.75 18.0332 123.75 19.4277V28H117.898V27.0977ZM117.898 19.332C116.75 18.776 115.606 18.498 114.467 18.498C114.285 18.498 114.111 18.5117 113.947 18.5391V27.2344C113.993 27.2435 114.043 27.248 114.098 27.248C114.152 27.248 114.207 27.248 114.262 27.248C115.51 27.248 116.723 26.806 117.898 25.9219V19.332ZM125.719 13.3984H131.912L135.631 21.0684L137.969 16.4199C138.452 15.4264 138.753 14.6882 138.871 14.2051C138.999 13.722 139.122 13.4258 139.24 13.3164C139.368 13.207 139.518 13.1523 139.691 13.1523C139.874 13.1523 140.015 13.2116 140.115 13.3301C140.215 13.4486 140.266 13.5671 140.266 13.6855C140.266 13.804 140.252 13.9225 140.225 14.041C140.206 14.1595 140.165 14.319 140.102 14.5195C139.965 14.8932 139.678 15.5404 139.24 16.4609L133.225 28.6152L125.719 13.3984ZM155.346 24.6777C155.701 24.6777 155.879 24.8418 155.879 25.1699C155.879 25.416 155.719 25.7077 155.4 26.0449C153.96 27.5215 151.987 28.2598 149.48 28.2598C147.229 28.2598 145.333 27.5807 143.793 26.2227C142.198 24.8099 141.4 23.0234 141.4 20.8633C141.4 18.6576 142.12 16.8438 143.561 15.4219C145.083 13.9089 147.106 13.1523 149.631 13.1523C151.654 13.1523 153.354 13.7676 154.73 14.998C156.216 16.3197 156.959 18.056 156.959 20.207C156.959 20.5169 156.95 20.8451 156.932 21.1914H147.908V27.0566C148.528 27.1842 149.225 27.248 150 27.248C151.641 27.248 153.04 26.7057 154.197 25.6211C154.434 25.3841 154.603 25.1973 154.703 25.0605C154.913 24.8053 155.127 24.6777 155.346 24.6777ZM151.695 14.4102C151.103 14.237 150.433 14.1504 149.686 14.1504C148.938 14.1504 148.346 14.2005 147.908 14.3008V20.1934H151.695V14.4102ZM160.432 8.6543H166.311V28H160.432V8.6543ZM169.729 26.168C169.729 26.0312 169.774 25.9082 169.865 25.7988C169.965 25.6803 170.093 25.6211 170.248 25.6211C170.403 25.6211 170.531 25.6667 170.631 25.7578C170.631 25.7578 170.745 25.8626 170.973 26.0723C171.921 26.9017 173.247 27.3164 174.951 27.3164C176.1 27.3164 176.838 27.0794 177.166 26.6055C177.257 26.4779 177.303 26.3503 177.303 26.2227C177.303 26.0859 177.275 25.9583 177.221 25.8398C177.175 25.7122 177.07 25.5618 176.906 25.3887C176.742 25.2064 176.51 24.9922 176.209 24.7461L175.006 23.7754C173.019 22.2259 171.656 20.9681 170.918 20.002C170.243 19.1178 169.906 18.2155 169.906 17.2949C169.906 16.1374 170.439 15.1667 171.506 14.3828C172.609 13.5625 174.035 13.1523 175.785 13.1523C177.016 13.1523 177.986 13.2936 178.697 13.5762C179.408 13.8587 179.91 14.1185 180.201 14.3555C180.493 14.5833 180.639 14.793 180.639 14.9844C180.639 15.3763 180.484 15.5723 180.174 15.5723C180.028 15.5723 179.891 15.5221 179.764 15.4219C179.645 15.3125 179.404 15.1348 179.039 14.8887C178.674 14.6335 178.191 14.4329 177.59 14.2871C176.988 14.1413 176.428 14.0684 175.908 14.0684C175.389 14.0684 175.02 14.1504 174.801 14.3145C174.591 14.4785 174.486 14.6426 174.486 14.8066C174.486 14.9616 174.518 15.112 174.582 15.2578C174.646 15.3945 174.764 15.5586 174.938 15.75C175.339 16.224 175.981 16.7845 176.865 17.4316C177.749 18.0788 178.497 18.6712 179.107 19.209C179.718 19.7467 180.197 20.2435 180.543 20.6992C181.172 21.5195 181.486 22.349 181.486 23.1875C181.486 24.026 181.331 24.7461 181.021 25.3477C180.712 25.9401 180.27 26.4505 179.695 26.8789C178.483 27.7995 176.865 28.2598 174.842 28.2598C173.219 28.2598 171.866 27.9499 170.781 27.3301C170.079 26.9382 169.729 26.5508 169.729 26.168Z" fill="#188FFD"/>
</g>
<defs>
<clipPath id="clip0_2_2">
<rect width="186" height="34" fill="white"/>
</clipPath>
</defs>
</svg>
